<mxfile host="app.diagrams.net" modified="2022-06-05T11:19:05.172Z" agent="5.0 (Macintosh; Intel Mac OS X 10_15_7) AppleWebKit/605.1.15 (KHTML, like Gecko) Version/15.5 Safari/605.1.15" etag="0917VRngmpmM3If_8Thl" version="19.0.0" type="github">
  <diagram name="Page-1" id="c4acf3e9-155e-7222-9cf6-157b1a14988f">
    <mxGraphModel dx="1238" dy="1088" grid="1" gridSize="10" guides="1" tooltips="1" connect="1" arrows="1" fold="1" page="1" pageScale="1" pageWidth="850" pageHeight="1100" background="none" math="0" shadow="0">
      <root>
        <mxCell id="0" />
        <mxCell id="1" parent="0" />
        <mxCell id="rkSj7VLogjLwrcGPQ1I0-1" value="message-broker" style="shape=module;align=left;spacingLeft=20;align=center;verticalAlign=top;fillColor=#fff2cc;strokeColor=#d6b656;" vertex="1" parent="1">
          <mxGeometry x="250" y="250" width="340" height="160" as="geometry" />
        </mxCell>
        <mxCell id="rkSj7VLogjLwrcGPQ1I0-2" value="" style="rounded=0;orthogonalLoop=1;jettySize=auto;html=1;endArrow=none;endFill=0;sketch=0;sourcePerimeterSpacing=0;targetPerimeterSpacing=0;exitX=0.5;exitY=0;exitDx=0;exitDy=0;" edge="1" target="rkSj7VLogjLwrcGPQ1I0-4" parent="1" source="rkSj7VLogjLwrcGPQ1I0-1">
          <mxGeometry relative="1" as="geometry">
            <mxPoint x="425" y="115" as="sourcePoint" />
          </mxGeometry>
        </mxCell>
        <mxCell id="rkSj7VLogjLwrcGPQ1I0-34" value="push API" style="edgeLabel;html=1;align=center;verticalAlign=middle;resizable=0;points=[];" vertex="1" connectable="0" parent="rkSj7VLogjLwrcGPQ1I0-2">
          <mxGeometry relative="1" as="geometry">
            <mxPoint as="offset" />
          </mxGeometry>
        </mxCell>
        <mxCell id="rkSj7VLogjLwrcGPQ1I0-3" value="" style="rounded=0;orthogonalLoop=1;jettySize=auto;html=1;endArrow=halfCircle;endFill=0;entryX=0.5;entryY=0.5;endSize=6;strokeWidth=1;sketch=0;exitX=0.5;exitY=1;exitDx=0;exitDy=0;" edge="1" target="rkSj7VLogjLwrcGPQ1I0-4" parent="1" source="rkSj7VLogjLwrcGPQ1I0-5">
          <mxGeometry relative="1" as="geometry">
            <mxPoint x="420" y="70" as="sourcePoint" />
          </mxGeometry>
        </mxCell>
        <mxCell id="rkSj7VLogjLwrcGPQ1I0-33" value="push" style="edgeLabel;html=1;align=center;verticalAlign=middle;resizable=0;points=[];" vertex="1" connectable="0" parent="rkSj7VLogjLwrcGPQ1I0-3">
          <mxGeometry x="-0.1059" y="2" relative="1" as="geometry">
            <mxPoint as="offset" />
          </mxGeometry>
        </mxCell>
        <mxCell id="rkSj7VLogjLwrcGPQ1I0-4" value="" style="ellipse;whiteSpace=wrap;html=1;align=center;aspect=fixed;resizable=0;points=[];outlineConnect=0;sketch=0;" vertex="1" parent="1">
          <mxGeometry x="415" y="202" width="10" height="10" as="geometry" />
        </mxCell>
        <mxCell id="rkSj7VLogjLwrcGPQ1I0-5" value="&lt;&lt;data provider&gt;&gt;&#xa;Client" style="shape=module;align=left;spacingLeft=20;align=center;verticalAlign=top;fillColor=#dae8fc;strokeColor=#6c8ebf;" vertex="1" parent="1">
          <mxGeometry x="350" y="90" width="140" height="50" as="geometry" />
        </mxCell>
        <mxCell id="rkSj7VLogjLwrcGPQ1I0-10" value="" style="rounded=0;orthogonalLoop=1;jettySize=auto;html=1;endArrow=none;endFill=0;sketch=0;sourcePerimeterSpacing=0;targetPerimeterSpacing=0;exitX=0.25;exitY=1;exitDx=0;exitDy=0;" edge="1" target="rkSj7VLogjLwrcGPQ1I0-12" parent="1" source="rkSj7VLogjLwrcGPQ1I0-1">
          <mxGeometry relative="1" as="geometry">
            <mxPoint x="320" y="505" as="sourcePoint" />
          </mxGeometry>
        </mxCell>
        <mxCell id="rkSj7VLogjLwrcGPQ1I0-36" value="web socket" style="edgeLabel;html=1;align=center;verticalAlign=middle;resizable=0;points=[];" vertex="1" connectable="0" parent="rkSj7VLogjLwrcGPQ1I0-10">
          <mxGeometry x="0.1429" y="1" relative="1" as="geometry">
            <mxPoint as="offset" />
          </mxGeometry>
        </mxCell>
        <mxCell id="rkSj7VLogjLwrcGPQ1I0-11" value="" style="rounded=0;orthogonalLoop=1;jettySize=auto;html=1;endArrow=halfCircle;endFill=0;entryX=0.5;entryY=0.5;endSize=6;strokeWidth=1;sketch=0;exitX=0.75;exitY=0;exitDx=0;exitDy=0;" edge="1" target="rkSj7VLogjLwrcGPQ1I0-12" parent="1" source="rkSj7VLogjLwrcGPQ1I0-22">
          <mxGeometry relative="1" as="geometry">
            <mxPoint x="340" y="533" as="sourcePoint" />
          </mxGeometry>
        </mxCell>
        <mxCell id="rkSj7VLogjLwrcGPQ1I0-12" value="" style="ellipse;whiteSpace=wrap;html=1;align=center;aspect=fixed;resizable=0;points=[];outlineConnect=0;sketch=0;" vertex="1" parent="1">
          <mxGeometry x="330" y="452" width="10" height="10" as="geometry" />
        </mxCell>
        <mxCell id="rkSj7VLogjLwrcGPQ1I0-16" value="" style="rounded=0;orthogonalLoop=1;jettySize=auto;html=1;endArrow=none;endFill=0;sketch=0;sourcePerimeterSpacing=0;targetPerimeterSpacing=0;exitX=0.5;exitY=1;exitDx=0;exitDy=0;" edge="1" target="rkSj7VLogjLwrcGPQ1I0-18" parent="1" source="rkSj7VLogjLwrcGPQ1I0-1">
          <mxGeometry relative="1" as="geometry">
            <mxPoint x="450" y="515" as="sourcePoint" />
          </mxGeometry>
        </mxCell>
        <mxCell id="rkSj7VLogjLwrcGPQ1I0-37" value="callback" style="edgeLabel;html=1;align=center;verticalAlign=middle;resizable=0;points=[];" vertex="1" connectable="0" parent="rkSj7VLogjLwrcGPQ1I0-16">
          <mxGeometry x="0.1905" y="2" relative="1" as="geometry">
            <mxPoint as="offset" />
          </mxGeometry>
        </mxCell>
        <mxCell id="rkSj7VLogjLwrcGPQ1I0-17" value="" style="rounded=0;orthogonalLoop=1;jettySize=auto;html=1;endArrow=halfCircle;endFill=0;entryX=0.5;entryY=0.5;endSize=6;strokeWidth=1;sketch=0;exitX=0.5;exitY=0;exitDx=0;exitDy=0;" edge="1" target="rkSj7VLogjLwrcGPQ1I0-18" parent="1" source="rkSj7VLogjLwrcGPQ1I0-24">
          <mxGeometry relative="1" as="geometry">
            <mxPoint x="430" y="563" as="sourcePoint" />
          </mxGeometry>
        </mxCell>
        <mxCell id="rkSj7VLogjLwrcGPQ1I0-18" value="" style="ellipse;whiteSpace=wrap;html=1;align=center;aspect=fixed;resizable=0;points=[];outlineConnect=0;sketch=0;" vertex="1" parent="1">
          <mxGeometry x="415" y="452" width="10" height="10" as="geometry" />
        </mxCell>
        <mxCell id="rkSj7VLogjLwrcGPQ1I0-19" value="" style="rounded=0;orthogonalLoop=1;jettySize=auto;html=1;endArrow=none;endFill=0;sketch=0;sourcePerimeterSpacing=0;targetPerimeterSpacing=0;exitX=0.75;exitY=1;exitDx=0;exitDy=0;" edge="1" target="rkSj7VLogjLwrcGPQ1I0-21" parent="1" source="rkSj7VLogjLwrcGPQ1I0-1">
          <mxGeometry relative="1" as="geometry">
            <mxPoint x="500" y="525" as="sourcePoint" />
          </mxGeometry>
        </mxCell>
        <mxCell id="rkSj7VLogjLwrcGPQ1I0-38" value="long polling" style="edgeLabel;html=1;align=center;verticalAlign=middle;resizable=0;points=[];" vertex="1" connectable="0" parent="rkSj7VLogjLwrcGPQ1I0-19">
          <mxGeometry x="-0.0476" y="3" relative="1" as="geometry">
            <mxPoint as="offset" />
          </mxGeometry>
        </mxCell>
        <mxCell id="rkSj7VLogjLwrcGPQ1I0-20" value="" style="rounded=0;orthogonalLoop=1;jettySize=auto;html=1;endArrow=halfCircle;endFill=0;entryX=0.5;entryY=0.5;endSize=6;strokeWidth=1;sketch=0;exitX=0.25;exitY=0;exitDx=0;exitDy=0;" edge="1" target="rkSj7VLogjLwrcGPQ1I0-21" parent="1" source="rkSj7VLogjLwrcGPQ1I0-23">
          <mxGeometry relative="1" as="geometry">
            <mxPoint x="510" y="553" as="sourcePoint" />
          </mxGeometry>
        </mxCell>
        <mxCell id="rkSj7VLogjLwrcGPQ1I0-21" value="" style="ellipse;whiteSpace=wrap;html=1;align=center;aspect=fixed;resizable=0;points=[];outlineConnect=0;sketch=0;" vertex="1" parent="1">
          <mxGeometry x="500" y="452" width="10" height="10" as="geometry" />
        </mxCell>
        <mxCell id="rkSj7VLogjLwrcGPQ1I0-22" value="&lt;&lt;receiver&gt;&gt;&#xa;Client" style="shape=module;align=left;spacingLeft=20;align=center;verticalAlign=top;fillColor=#d5e8d4;strokeColor=#82b366;" vertex="1" parent="1">
          <mxGeometry x="230" y="533" width="100" height="50" as="geometry" />
        </mxCell>
        <mxCell id="rkSj7VLogjLwrcGPQ1I0-23" value="&lt;&lt;receiver&gt;&gt;&#xa;Client" style="shape=module;align=left;spacingLeft=20;align=center;verticalAlign=top;fillColor=#d5e8d4;strokeColor=#82b366;" vertex="1" parent="1">
          <mxGeometry x="510" y="533" width="100" height="50" as="geometry" />
        </mxCell>
        <mxCell id="rkSj7VLogjLwrcGPQ1I0-24" value="&lt;&lt;receiver&gt;&gt;&#xa;Client" style="shape=module;align=left;spacingLeft=20;align=center;verticalAlign=top;fillColor=#d5e8d4;strokeColor=#82b366;" vertex="1" parent="1">
          <mxGeometry x="370" y="533" width="100" height="50" as="geometry" />
        </mxCell>
        <mxCell id="rkSj7VLogjLwrcGPQ1I0-25" value="LokiJS" style="shape=cylinder3;whiteSpace=wrap;html=1;boundedLbl=1;backgroundOutline=1;size=15;fillColor=#E6E6E6;strokeColor=#666666;fontColor=#333333;" vertex="1" parent="1">
          <mxGeometry x="630" y="310" width="60" height="80" as="geometry" />
        </mxCell>
        <mxCell id="rkSj7VLogjLwrcGPQ1I0-26" value="" style="endArrow=classic;html=1;rounded=0;entryX=0;entryY=0.5;entryDx=0;entryDy=0;entryPerimeter=0;exitX=1.003;exitY=0.44;exitDx=0;exitDy=0;exitPerimeter=0;" edge="1" parent="1" source="rkSj7VLogjLwrcGPQ1I0-1" target="rkSj7VLogjLwrcGPQ1I0-25">
          <mxGeometry width="50" height="50" relative="1" as="geometry">
            <mxPoint y="450" as="sourcePoint" />
            <mxPoint x="50" y="400" as="targetPoint" />
          </mxGeometry>
        </mxCell>
        <mxCell id="rkSj7VLogjLwrcGPQ1I0-30" value="" style="rounded=0;orthogonalLoop=1;jettySize=auto;html=1;endArrow=none;endFill=0;sketch=0;sourcePerimeterSpacing=0;targetPerimeterSpacing=0;exitX=0.75;exitY=0;exitDx=0;exitDy=0;" edge="1" target="rkSj7VLogjLwrcGPQ1I0-32" parent="1" source="rkSj7VLogjLwrcGPQ1I0-1">
          <mxGeometry relative="1" as="geometry">
            <mxPoint x="600" y="175" as="sourcePoint" />
          </mxGeometry>
        </mxCell>
        <mxCell id="rkSj7VLogjLwrcGPQ1I0-35" value="admin API" style="edgeLabel;html=1;align=center;verticalAlign=middle;resizable=0;points=[];" vertex="1" connectable="0" parent="rkSj7VLogjLwrcGPQ1I0-30">
          <mxGeometry x="0.1053" y="-3" relative="1" as="geometry">
            <mxPoint as="offset" />
          </mxGeometry>
        </mxCell>
        <mxCell id="rkSj7VLogjLwrcGPQ1I0-32" value="" style="ellipse;whiteSpace=wrap;html=1;align=center;aspect=fixed;resizable=0;points=[];outlineConnect=0;sketch=0;" vertex="1" parent="1">
          <mxGeometry x="500" y="202" width="10" height="10" as="geometry" />
        </mxCell>
      </root>
    </mxGraphModel>
  </diagram>
</mxfile>
